<svg width="1151" height="577" fill="none" xmlns="http://www.w3.org/2000/svg"><path d="M102.164 387.76c4.233 3.487 9.587 8.219 16.061 14.196 6.724 5.728 14.319 11.456 22.785 17.184 12.451 8.467 24.901 15.067 37.352 19.799 12.7 4.731 25.897 7.097 39.593 7.097 12.7 0 23.283-1.369 31.749-4.109 8.716-2.988 15.564-6.848 20.544-11.58s8.466-10.211 10.458-16.437c2.242-6.226 3.362-12.826 3.362-19.799 0-7.72-2.988-14.569-8.964-20.546-5.728-6.226-12.825-11.705-21.291-16.437a169.184 169.184 0 00-26.52-11.954c-9.213-3.487-17.182-6.351-23.905-8.592-29.882-10.46-56.028-21.667-78.439-33.621-22.411-12.203-41.087-25.651-56.028-40.345-14.94-14.943-26.146-31.379-33.617-49.311-7.47-17.931-11.205-37.73-11.205-59.396 0-23.161 4.606-44.205 13.82-63.133C47.38 71.85 60.704 55.661 77.885 42.213c17.431-13.448 38.348-23.784 62.752-31.006C165.04 3.736 192.307 0 222.437 0c22.412 0 44.076 2.615 64.993 7.845 21.166 4.98 41.709 13.075 61.63 24.282 8.467 4.98 16.435 10.086 23.906 15.316 7.719 5.23 14.442 10.46 20.17 15.69 5.727 4.98 10.209 9.712 13.446 14.195 3.487 4.483 5.23 8.343 5.23 11.58 0 3.238-.872 6.227-2.615 8.966-1.494 2.739-3.86 5.853-7.097 9.339l-57.148 60.891c-4.234 4.234-8.467 6.351-12.7 6.351-3.486 0-6.723-.996-9.711-2.989-2.74-1.992-5.852-4.483-9.338-7.471l-3.362-2.989c-4.98-4.233-10.583-8.592-16.808-13.074-5.977-4.483-12.451-8.468-19.423-11.954a113.574 113.574 0 00-22.038-8.966c-7.72-2.49-15.563-3.736-23.532-3.736-8.217 0-15.937.748-23.158 2.242-7.221 1.245-13.571 3.362-19.05 6.35-5.478 2.989-9.836 6.974-13.073 11.954-3.237 4.732-4.855 10.585-4.855 17.558 0 6.973 1.743 13.075 5.229 18.305 3.486 4.981 8.715 9.712 15.688 14.195 6.972 4.234 15.563 8.343 25.772 12.328 10.459 3.735 22.536 7.845 36.232 12.327 26.395 8.717 50.674 17.932 72.836 27.644 22.411 9.464 41.71 20.795 57.896 33.995 16.185 12.95 28.761 28.515 37.725 46.695 9.214 18.18 13.82 40.221 13.82 66.121 0 27.395-5.602 52.299-16.808 74.713-11.206 22.165-26.644 41.092-46.316 56.782-19.423 15.69-42.333 27.893-68.728 36.609-26.395 8.468-54.783 12.702-85.162 12.702-19.174 0-38.348-2.366-57.522-7.098a308.765 308.765 0 01-54.908-20.173 347.976 347.976 0 01-49.678-30.258c-15.439-11.456-29.134-23.784-41.087-36.983l-1.12-1.121-1.495-1.494-1.494-1.495c-5.727-5.977-8.59-10.957-8.59-14.942 0-4.234 2.863-8.966 8.59-14.196l64.62-61.638c5.228-3.735 9.462-5.603 12.699-5.603 2.24 0 4.607.747 7.097 2.241 2.49 1.494 5.478 3.736 8.964 6.724zm511.623 171.093a148.205 148.205 0 01-7.471-13.822 874.62 874.62 0 01-5.976-14.569L408.724 28.765c0-1.246-.249-2.366-.747-3.363a12.282 12.282 0 01-.373-2.988c0-6.973 4.606-10.46 13.82-10.46h120.273c9.463 0 15.937 4.732 19.424 14.195l113.923 339.945a3112.538 3112.538 0 0029.135-84.8c9.462-28.391 18.8-56.782 28.013-85.172a34362.891 34362.891 0 0127.641-84.8 2866.71 2866.71 0 0129.134-85.172c3.487-9.464 10.335-14.196 20.544-14.196H927.17c5.727 0 9.711 1.12 11.952 3.362 2.49 1.992 3.735 4.732 3.735 8.219 0 1.743-.124 3.113-.373 4.109L749.748 530.462c-1.245 3.487-2.739 7.347-4.482 11.58a89.24 89.24 0 01-5.977 11.955c-2.241 3.486-4.855 6.475-7.843 8.965-2.989 2.491-6.35 3.736-10.086 3.736h-92.259c-7.47 0-12.575-2.615-15.314-7.845zm392.143 18.096c-80.098 0-145.028-65.636-145.028-146.601 0-80.966 64.93-146.602 145.028-146.602 80.09 0 145.02 65.636 145.02 146.602v129.778c0 9.291-7.47 16.823-16.68 16.823h-128.34z" fill="#FAFAFA"/></svg>