<svg width="2813" height="377" fill="none" xmlns="http://www.w3.org/2000/svg"><path d="M286.896 0v293.222h-57.38V103.047l-82.508 136.139h-6.701l-82.51-135.72v189.756H0V0h59.473l84.184 138.652L227.422 0h59.474zm228.021 83.778h54.028v209.444h-54.028v-24.714c-16.195 20.386-38.951 30.579-68.269 30.579-27.922 0-51.934-10.612-72.038-31.836-19.824-21.503-29.736-47.753-29.736-78.751 0-30.998 9.912-57.109 29.736-78.332 20.104-21.503 44.116-32.255 72.038-32.255 29.318 0 52.074 10.193 68.269 30.579V83.778zm-99.681 147.449c10.89 10.891 24.711 16.336 41.464 16.336s30.574-5.445 41.464-16.336c11.168-11.171 16.753-25.413 16.753-42.727 0-17.314-5.585-31.417-16.753-42.308-10.89-11.17-24.711-16.755-41.464-16.755s-30.574 5.585-41.464 16.755c-10.889 10.891-16.334 24.994-16.334 42.308s5.445 31.556 16.334 42.727zM756.569 77.913c28.201 0 52.214 10.752 72.038 32.255 20.104 21.223 30.156 47.334 30.156 78.332 0 30.998-10.052 57.248-30.156 78.751-19.824 21.224-43.837 31.836-72.038 31.836-29.317 0-51.934-10.193-67.849-30.579V377h-54.029V83.778h54.029v24.714c15.915-20.386 38.532-30.579 67.849-30.579zm-51.515 153.314c10.889 10.891 24.71 16.336 41.463 16.336s30.575-5.445 41.464-16.336c11.169-11.171 16.753-25.413 16.753-42.727 0-17.314-5.584-31.417-16.753-42.308-10.889-11.17-24.711-16.755-41.464-16.755s-30.574 5.585-41.463 16.755c-10.89 10.891-16.334 24.994-16.334 42.308s5.444 31.556 16.334 42.727zm401.646 61.995h-62.83l-76.222-95.088v95.088h-54.029V83.778h54.029v92.155l72.042-92.155h64.49L1020 187.243l86.7 105.979zm74.24-82.521c7.26 26.25 26.94 39.376 59.05 39.376 20.66 0 36.3-6.982 46.91-20.945l43.56 25.134c-20.66 29.88-51.1 44.821-91.31 44.821-34.62 0-62.4-10.473-83.34-31.417-20.94-20.944-31.41-47.334-31.41-79.17 0-31.556 10.33-57.807 30.99-78.751 20.66-21.224 47.19-31.836 79.58-31.836 30.71 0 55.98 10.612 75.8 31.836 20.11 21.224 30.16 47.474 30.16 78.751 0 6.981-.7 14.382-2.09 22.201h-157.9zm-.84-41.889h106.8c-3.07-14.242-9.49-24.854-19.27-31.835-9.49-6.982-20.38-10.473-32.66-10.473-14.52 0-26.53 3.77-36.02 11.31-9.5 7.261-15.78 17.594-18.85 30.998zm372.14-85.034v51.942h-65.34v157.502h-54.03V135.72h-66.17V83.778h185.54zm237.01 0v209.444h-54.03V134.463h-83.35v158.759h-54.03V83.778h191.41zm245.93 0v209.444h-54.03V135.72h-57.8v69.954c0 64.789-29.46 93.971-88.37 87.548v-50.685c11.17 2.792 19.68.977 25.55-5.446 5.86-6.702 8.79-18.152 8.79-34.349V83.778h165.86zm111.36 126.923c7.26 26.25 26.95 39.376 59.06 39.376 20.66 0 36.3-6.982 46.91-20.945l43.55 25.134c-20.66 29.88-51.09 44.821-91.3 44.821-34.62 0-62.4-10.473-83.35-31.417-20.94-20.944-31.41-47.334-31.41-79.17 0-31.556 10.33-57.807 31-78.751 20.66-21.224 47.18-31.836 79.57-31.836 30.72 0 55.99 10.612 75.81 31.836 20.1 21.224 30.16 47.474 30.16 78.751 0 6.981-.7 14.382-2.1 22.201h-157.9zm-.83-41.889h106.8c-3.07-14.242-9.5-24.854-19.27-31.835-9.49-6.982-20.38-10.473-32.67-10.473-14.52 0-26.52 3.77-36.02 11.31-9.49 7.261-15.77 17.594-18.84 30.998zm250.48-111.843V10.053h121.46V56.97h-121.46zm116.01 26.809h40.21v209.444h-52.77V174.258l-98.43 118.964h-40.2V83.778h52.77v118.964l98.42-118.964zm206.15 215.309c-31.56 0-57.94-10.612-79.16-31.836-20.94-21.224-31.41-47.474-31.41-78.751 0-31.277 10.47-57.527 31.41-78.751 21.22-21.224 47.6-31.836 79.16-31.836 20.38 0 38.95 4.887 55.7 14.661 16.75 9.775 29.46 22.9 38.11 39.376l-46.49 27.228c-4.19-8.657-10.61-15.499-19.26-20.526-8.38-5.026-17.87-7.54-28.48-7.54-16.2 0-29.6 5.446-40.21 16.337-10.61 10.612-15.92 24.295-15.92 41.051 0 16.476 5.31 30.16 15.92 41.051 10.61 10.612 24.01 15.918 40.21 15.918 10.89 0 20.52-2.374 28.9-7.121 8.65-5.027 15.07-11.869 19.26-20.526l46.91 26.809c-9.21 16.476-22.2 29.741-38.95 39.795-16.75 9.774-35.32 14.661-55.7 14.661z" fill="#232323" fill-opacity=".02"/></svg>