<svg width="33" height="33" fill="none" xmlns="http://www.w3.org/2000/svg"><path d="M25.163 4.852a.674.674 0 01-.343-.093c-2.86-1.531-5.333-2.18-8.298-2.18-2.95 0-5.751.726-8.3 2.18-.36.204-.804.062-1.012-.312a.8.8 0 01.298-1.052 18.164 18.164 0 019.014-2.364c3.173 0 5.944.727 8.984 2.352a.774.774 0 01.312 1.036.728.728 0 01-.655.433zm-21.32 8.121a.756.756 0 01-.432-.139.79.79 0 01-.18-1.083C4.707 9.586 6.583 7.884 8.82 6.693c4.678-2.503 10.668-2.522 15.36-.016 2.236 1.192 4.113 2.878 5.588 5.028a.792.792 0 01-.18 1.083.726.726 0 01-1.042-.186c-1.34-1.95-3.04-3.48-5.05-4.548C19.217 5.78 13.75 5.78 9.488 8.07c-2.026 1.082-3.725 2.63-5.065 4.576a.645.645 0 01-.582.327zm9.311 18.674a.687.687 0 01-.521-.232c-1.296-1.349-2-2.218-2.995-4.087-1.031-1.902-1.564-4.223-1.564-6.713 0-4.595 3.784-8.338 8.433-8.338s8.435 3.743 8.435 8.338a.746.746 0 11-1.489 0c0-3.744-3.114-6.791-6.943-6.791-3.828 0-6.946 3.047-6.946 6.79 0 2.228.476 4.286 1.385 5.956.954 1.78 1.611 2.537 2.757 3.744a.817.817 0 010 1.095.802.802 0 01-.552.238zm10.683-2.862c-1.773 0-3.337-.464-4.619-1.377a8.32 8.32 0 01-3.544-6.79.744.744 0 011.442-.295.746.746 0 01.048.294 6.722 6.722 0 002.89 5.507c1.057.743 2.294 1.096 3.784 1.096a9.49 9.49 0 001.547-.155c.402-.077.79.201.864.634a.769.769 0 01-.61.898 9.818 9.818 0 01-1.802.185v.003zm-2.995 3.184a.84.84 0 01-.193-.031c-2.37-.68-3.92-1.593-5.543-3.248-2.087-2.15-3.233-5.012-3.233-8.075 0-2.506 2.056-4.548 4.588-4.548 2.533 0 4.59 2.042 4.59 4.548 0 1.655 1.385 3 3.098 3 1.713 0 3.099-1.345 3.099-3 0-5.832-4.842-10.565-10.802-10.565-4.231 0-8.105 2.444-9.848 6.233-.58 1.253-.879 2.723-.879 4.332 0 1.206.104 3.109.998 5.584.15.402-.044.85-.432.99a.733.733 0 01-.953-.451 17.814 17.814 0 01-1.088-6.123c0-1.856.343-3.545 1.013-5.012 1.982-4.319 6.377-7.116 11.19-7.116 6.779 0 12.291 5.43 12.291 12.112 0 2.506-2.056 4.548-4.589 4.548-2.533 0-4.589-2.042-4.589-4.548 0-1.655-1.385-3.003-3.098-3.003-1.713 0-3.1 1.346-3.1 3 0 2.643.984 5.12 2.787 6.977 1.418 1.454 2.772 2.256 4.872 2.862.402.108.626.541.522.943a.734.734 0 01-.701.59z" fill="#fff"/></svg>