<svg width="175" height="41" fill="none" xmlns="http://www.w3.org/2000/svg"><path d="M44.103 30.22V3.366h15.871v3.366H47.39v8.256h11.302v3.367H47.39v8.416h13.466v3.367H44.103v.08zm33.425-.001l-5.45-7.134-5.45 7.134H62.78l7.454-9.539-7.855-9.86h4.328l5.37 7.375 5.451-7.374h4.249l-7.455 9.86 7.054 9.538h-3.848zm9.137-2.885v13.225H83.38V20.761c0-5.05 3.847-10.42 9.86-10.42 6.091 0 10.66 3.847 10.66 10.18 0 6.171-4.65 10.42-9.94 10.42-2.564 0-6.011-1.123-7.294-3.607zm13.787-6.814c0-4.328-2.805-6.893-7.775-6.653-2.405.08-6.092 1.844-5.771 8.016.08 2.004 2.164 5.771 6.733 5.771 3.928 0 6.813-2.244 6.813-7.134zm6.253 9.7v-19.4h3.287v2.084c1.603-1.843 4.087-2.485 6.733-2.485v3.527c-.401-.08-4.329-.56-6.733 4.57v11.782h-3.287v-.08zm10.902-9.7c0-5.61 4.008-10.18 9.539-10.18 6.894 0 9.459 4.57 9.459 10.42v1.604h-15.391c.241 3.687 3.527 5.61 6.573 5.53 2.245-.08 3.768-.72 5.371-2.324l2.164 2.244c-2.004 1.924-4.569 3.207-7.695 3.207-5.851-.08-10.02-4.409-10.02-10.5zm9.299-6.893c-3.127 0-5.531 2.725-5.692 5.69h11.944c0-2.885-2.084-5.69-6.252-5.69zm11.383 13.867l2.405-2.164c-.08 0 1.202 1.282 1.362 1.362.562.481 1.123.802 1.844.962 2.084.561 5.851.401 6.172-2.485.16-1.603-1.042-2.485-2.405-3.046-1.763-.64-3.687-.881-5.45-1.683-2.004-.882-3.287-2.405-3.287-4.649 0-5.851 8.337-6.813 12.104-4.088.16.16 2.004 1.844 1.924 1.844l-2.405 1.923c-1.202-1.442-2.325-2.164-4.89-2.164-1.282 0-3.045.561-3.366 1.924-.481 1.924 1.683 2.645 3.126 3.046 1.924.48 4.008.801 5.691 1.843 2.325 1.443 2.886 4.57 2.004 6.974-.962 2.645-3.847 3.687-6.412 3.767-3.046.16-5.692-.801-7.856-2.965-.16 0-.561-.401-.561-.401zm16.912 0l2.405-2.164c-.08 0 1.202 1.282 1.363 1.362.561.481 1.122.802 1.843.962 2.084.561 5.852.401 6.172-2.485.16-1.603-1.042-2.485-2.405-3.046-1.763-.64-3.687-.881-5.45-1.683-2.004-.882-3.287-2.405-3.287-4.649 0-5.851 8.337-6.813 12.104-4.088.16.16 2.004 1.844 1.924 1.844l-2.405 1.923c-1.202-1.442-2.324-2.164-4.889-2.164-1.283 0-3.046.561-3.367 1.924-.481 1.924 1.683 2.645 3.126 3.046 1.924.48 4.008.801 5.691 1.843 2.325 1.443 2.886 4.57 2.004 6.974-.962 2.645-3.847 3.687-6.412 3.767-3.046.16-5.692-.801-7.856-2.965-.16 0-.561-.401-.561-.401zm15.63-16.673V8.737h-.722v-.4h1.924v.4h-.721v2.084h-.481zm3.607 0V8.898l-.722 1.923h-.16l-.722-1.923v1.923h-.4V8.336h.641l.641 1.684.641-1.684h.642v2.485h-.561zM21.822 30.219l-2.405-6.413H6.432L4.027 30.22H.58L11 3.366h3.768l10.34 26.853h-3.286zM12.764 7.214L7.874 20.52h10.18l-5.29-13.306zm14.509 23.005V3.366h3.367V30.22h-3.367zm8.417.001V11.221h3.366V30.22H35.69zm6.572-25.17v-.32A4.902 4.902 0 0137.532 0h-.48a4.902 4.902 0 01-4.73 4.73v.32a4.902 4.902 0 014.73 4.73h.48a4.902 4.902 0 014.73-4.73z" fill="#fff"/></svg>