<svg width="161" height="37" fill="none" xmlns="http://www.w3.org/2000/svg"><path d="M22.554 27.752c3.947-.526 7.136-3.881 7.64-8.038a9.803 9.803 0 00-.4-4.216 9.428 9.428 0 00-2.126-3.597 8.823 8.823 0 00-3.418-2.238 8.46 8.46 0 00-4.007-.419c-3.95.53-7.138 3.885-7.639 8.039a9.802 9.802 0 00.398 4.215 9.425 9.425 0 002.127 3.597 8.82 8.82 0 003.419 2.238 8.458 8.458 0 004.006.42zm.538-26.656c3.8.421 7.348 2.202 10.05 5.045 2.702 2.844 4.394 6.577 4.794 10.575C38.978 27.78 30.216 37 19.7 35.904c-3.8-.422-7.347-2.203-10.048-5.046-2.701-2.843-4.393-6.576-4.793-10.575C3.816 9.222 12.578 0 23.092 1.096zm23.765.692H71.19c.926 0 1.448 1.113.891 1.888L55.245 27.05h13.192c2.405 0 4.297 2.302 3.8 4.925-.366 1.925-2.081 3.236-3.945 3.236H41.865c-.916 0-1.436-1.103-.885-1.868L57.83 9.95H47.002c-1.864 0-3.58-1.315-3.944-3.236-.5-2.624 1.394-4.926 3.799-4.926zm105.607.093c2.511-.556 4.721 1.444 4.721 3.988v28.163c0 .984-1.08 1.53-1.81.921l-20.991-17.525v13.71c0 2.543-2.21 4.544-4.722 3.987-1.8-.397-3.034-2.163-3.034-4.097V2.964c0-.983 1.079-1.53 1.81-.92l20.994 17.524V5.978c0-1.934 1.237-3.696 3.035-4.097h-.003zm-54.66-.874c12.853 0 23.271 7.83 23.271 17.488s-10.418 17.488-23.27 17.488-23.27-7.83-23.27-17.488S84.952 1.007 97.804 1.007zm0 8.161c-8.879 0-15.514 4.925-15.514 9.327s6.635 9.327 15.515 9.327c8.879 0 15.514-4.922 15.514-9.327s-6.635-9.327-15.514-9.327z" fill="#fff"/></svg>