<svg width="248" height="57" fill="none" xmlns="http://www.w3.org/2000/svg"><path d="M34.74 42.754c6.08-.811 10.992-5.98 11.767-12.384a15.1 15.1 0 00-.613-6.494 14.522 14.522 0 00-3.276-5.541 13.589 13.589 0 00-5.266-3.448 13.03 13.03 0 00-6.17-.646c-6.086.817-10.997 5.985-11.768 12.384a15.1 15.1 0 00.613 6.494 14.522 14.522 0 003.277 5.541 13.588 13.588 0 005.265 3.448c1.983.71 4.094.931 6.171.646zm.83-41.065c5.853.649 11.317 3.392 15.48 7.772 4.162 4.38 6.769 10.131 7.385 16.291C60.04 42.795 46.54 57 30.342 55.312c-5.852-.65-11.316-3.395-15.477-7.774-4.161-4.38-6.768-10.13-7.384-16.29C5.877 14.205 19.375 0 35.57 1.689zm36.606 1.066h37.484c1.425 0 2.23 1.715 1.372 2.909L85.097 41.672h20.32c3.705 0 6.619 3.547 5.853 7.588-.563 2.964-3.205 4.985-6.076 4.985H64.486c-1.411 0-2.211-1.7-1.363-2.878l25.955-36.039h-16.68c-2.87 0-5.512-2.026-6.075-4.985-.77-4.041 2.148-7.588 5.853-7.588zm162.673.143c3.87-.857 7.273 2.225 7.273 6.144v43.386c0 1.516-1.663 2.358-2.788 1.419l-32.335-26.998v21.12c0 3.918-3.403 7-7.272 6.143-2.774-.612-4.674-3.332-4.674-6.312V4.567c0-1.516 1.663-2.358 2.787-1.419l32.34 26.998V9.21c0-2.98 1.906-5.694 4.674-6.312h-.005zm-84.195-1.347c19.797 0 35.846 12.063 35.846 26.942 0 14.878-16.049 26.94-35.846 26.94-19.796 0-35.845-12.062-35.845-26.94 0-14.88 16.049-26.942 35.845-26.942zm0 12.573c-13.677 0-23.898 7.587-23.898 14.368 0 6.782 10.221 14.37 23.898 14.37 13.678 0 23.899-7.583 23.899-14.37 0-6.786-10.221-14.368-23.899-14.368z" fill="#0069FF"/></svg>