<svg width="207" height="43" fill="none" xmlns="http://www.w3.org/2000/svg"><path d="M70.206 3.405L74.264.486H60.907v17.027h13.357v-2.756h-9.637v-4.379h8.284V7.46h-8.115V3.405h5.41zm-19.443 3.73h-4.734v-3.73h7.439L57.525.486H42.31v17.027h7.946c4.565 0 7.101-1.946 7.101-5.35-.169-3.244-2.367-5.028-6.593-5.028zm-.677 7.46H46.03V9.892h4.057c2.367 0 3.55.81 3.55 2.432 0 1.622-1.183 2.27-3.55 2.27zM85.085.486h-7.27v17.027h3.888V12.65h3.55c4.735 0 7.609-2.27 7.609-6.163 0-3.891-3.043-6-7.777-6zm0 9.406h-3.382V3.405h3.382c2.536 0 3.888 1.136 3.888 3.244-.169 2.108-1.522 3.243-3.888 3.243zm-49.539 3.892c-1.014.486-2.198.81-3.382.81-3.38 0-5.917-2.432-5.917-5.675s2.536-5.676 5.917-5.676c1.353 0 2.537.325 3.551.973L38.42 2.27l-.169-.162C36.73.811 34.531 0 31.996 0c-2.706 0-5.073.81-6.763 2.432-1.691 1.622-2.706 3.73-2.706 6.163a8.77 8.77 0 002.706 6.324c1.69 1.622 4.057 2.432 6.762 2.432 2.706 0 5.242-.973 6.763-2.594-1.183-.811-2.536-1.784-2.536-1.784l-.676.81zm4.396 15.892l-5.748 9.08h-1.522l-5.749-8.918v12.649h-3.212V25.459h4.058l5.917 9.244 5.749-9.244h3.72v17.028h-3.213V29.676zm18.767 5.513h-8.115v4.54h9.299v2.758H47.38V25.459h12.343v2.757h-9.13v4.054h8.115v2.92zm16.907-6.973h-8.791v14.108h-3.213V25.46h12.005v2.756zm16.231 14.27h-3.381l-1.69-4.053H78.66l-1.69 4.054h-3.213l7.27-17.028h3.55l7.27 17.028zm-6.255-6.81l-2.874-6.973-2.875 6.973h5.749zm30.264-6l-5.749 9.08h-1.521l-5.749-8.918v12.649h-3.212V25.459h4.058l5.917 9.244 5.749-9.244h3.719v17.028h-3.212V29.676zm23.501 12.81h-3.381l-1.691-4.053h-8.116l-1.69 4.054h-3.213l7.27-17.028h3.551l7.27 17.028zm-6.256-6.81l-2.874-6.973-2.874 6.973h5.748zm11.666 1.46v5.35h-3.212V25.46h5.918c2.874 0 4.903.486 6.086 1.459 1.184.973 1.86 2.432 1.86 4.378 0 1.946-.676 3.406-2.029 4.54-1.352.974-3.381 1.46-5.917 1.46l-2.706-.162zm0-8.92v6.162h3.044c1.521 0 2.536-.324 3.381-.81.677-.487 1.184-1.298 1.184-2.433 0-.973-.338-1.784-1.015-2.27-.676-.487-1.859-.649-3.381-.649h-3.213zm17.077 14.27h-3.213V25.46h3.213v7.135h2.705l5.749-7.136h3.888l-6.763 8.109 7.778 8.919h-4.058l-6.425-7.298h-2.874v7.298zm26.883-7.297h-8.116v4.54h9.299v2.758h-12.511V25.459h12.342v2.757h-9.13v4.054h8.116v2.92zm17.921-6.973h-5.917v14.108h-3.213V28.216h-5.917V25.46h15.047v2.757zM16.51 3.476c.414.497.829 1.093 1.036 1.689l-8.181 5.86-3.418-2.086V6.555l3.418 2.086 7.145-5.165zM2.53 8.84v-.298l-2.071-.1v.398c0 1.192.207 2.285.725 3.377.414 1.093 1.139 1.987 1.967 2.88l1.45-1.39a6.287 6.287 0 01-1.45-2.185c-.517-.894-.62-1.788-.62-2.682zm6.836-6.655h.31L9.78.2h-.414c-1.14 0-2.382.198-3.418.695-1.139.397-2.07 1.093-2.9 1.887l1.45 1.291c.622-.596 1.45-1.092 2.279-1.49.828-.297 1.76-.397 2.589-.397zm.001 13.409h-.31l-.104 1.986h.414c1.14 0 2.382-.198 3.418-.695 1.139-.397 2.071-1.092 2.9-1.887l-1.45-1.39c-.622.595-1.45 1.092-2.279 1.49a7.034 7.034 0 01-2.589.496z" fill="#fff"/><path d="M13.3 3.278l1.76-1.291C13.509.695 11.437 0 9.366 0v1.987c1.45.198 2.796.596 3.935 1.29zm5.077 5.562c0-.496 0-1.092-.104-1.589l-1.967 1.39v.2c0 .893-.207 1.886-.622 2.68-.414.895-.932 1.59-1.657 2.285l1.347 1.49c.932-.794 1.656-1.788 2.174-2.98.622-.993.829-2.284.829-3.476zm-9.011 6.754c-.932 0-1.968-.199-2.796-.596-.932-.397-1.657-.894-2.278-1.59L2.738 14.8c.829.894 1.864 1.59 3.003 2.086 1.14.497 2.382.795 3.625.795v-2.086zM4.808 3.874l-1.45-1.49a8.607 8.607 0 00-2.174 2.88A8.835 8.835 0 00.459 8.84H2.53c0-.894.207-1.887.622-2.682.31-.894.932-1.688 1.656-2.284z" fill="#fff"/></svg>