<svg width="209" height="25" fill="none" xmlns="http://www.w3.org/2000/svg"><path d="M6.38 24.053L0 .423h4.185l4.9 18.149L14.34.422l3.9.001 5.272 18.245L28.434.428 32.62.422l-6.382 23.627-4.85-.005L16.29 6.398l-5.1 17.65-4.812.005zM35.504.436h3.983v23.601h-3.983V.436zm12.5 19.899h9.698v3.702H44.103V.436h3.901v19.899zM69.954.463c3.269 0 5.988 1.143 8.131 3.403 2.17 2.259 3.27 5.063 3.27 8.384 0 3.294-1.1 6.098-3.27 8.384-2.143 2.26-4.862 3.403-8.131 3.403h-9.368V.436h9.368v.027zm0 19.9c2.252 0 4.093-.763 5.466-2.287 1.429-1.525 2.143-3.485 2.143-5.799 0-2.368-.714-4.274-2.143-5.798-1.4-1.525-3.241-2.287-5.466-2.287h-5.44v16.17h5.44zm32.415-3.068c0 1.934-.686 3.54-2.087 4.82-1.401 1.28-3.05 1.934-5.082 1.934H85.008V.436h9.45c1.95 0 3.598.653 4.945 1.879 1.374 1.253 2.033 2.805 2.033 4.657 0 2.07-.825 3.65-2.418 4.821 2.088 1.09 3.351 3.05 3.351 5.502zM88.936 4.085v6.21h5.549c1.731 0 3.05-1.362 3.05-3.105 0-1.743-1.319-3.105-3.05-3.105h-5.549zm6.29 16.315c1.814 0 3.243-1.444 3.243-3.296 0-1.852-1.43-3.295-3.242-3.295h-6.291v6.618h6.29V20.4zm14.753-.055h10.549v3.704h-14.45V.436h14.285V4.14h-10.384v6.128h9.533v3.677h-9.533v6.4zm27.637 3.705l-5.055-8.607h-4.616v8.606h-3.9V.436h9.532c2.143 0 3.956.735 5.412 2.233 1.483 1.443 2.253 3.241 2.253 5.365 0 2.996-1.896 5.747-4.725 6.837l5.411 9.178h-4.312zm-9.671-19.965v7.899h5.605c2.087 0 3.736-1.743 3.736-3.95 0-2.178-1.676-3.949-3.736-3.949h-5.605zm30.522 19.965l-5.027-8.612h-4.616v8.611h-3.9V.423h9.532c2.143 0 3.956.736 5.412 2.235 1.483 1.444 2.253 3.243 2.253 5.368 0 2.998-1.896 5.75-4.725 6.84l5.411 9.183h-4.34zm-9.643-19.975v7.902h5.605c2.087 0 3.736-1.744 3.736-3.95 0-2.18-1.676-3.952-3.736-3.952h-5.605zm16.84-3.649h3.901v23.623h-3.901V.426zm12.417 19.919h10.549v3.704h-14.45V.436h14.285V4.14h-10.384v6.128h9.532v3.677h-9.532v6.4zm13.269-1.671l3.378-1.96c.962 2.668 2.913 3.975 5.906 3.975 2.967 0 4.423-1.252 4.423-3.103 0-.98-.411-1.688-1.18-2.178-.77-.517-2.198-1.09-4.231-1.688-2.281-.68-3.407-1.116-5-2.15-1.538-1.09-2.308-2.641-2.308-4.764 0-2.097.742-3.73 2.253-4.955C196.075.6 197.888 0 200.003 0c3.819 0 6.758 1.96 8.297 5.2l-3.297 1.878c-.99-2.178-2.665-3.294-5-3.294-2.281 0-3.737 1.143-3.737 2.94 0 1.742 1.154 2.559 4.808 3.675.907.3 1.566.517 1.978.68.44.137 1.016.382 1.758.681.77.3 1.374.653 1.731.953 1.264.98 2.609 2.586 2.445 4.845 0 2.124-.769 3.839-2.335 5.09-1.539 1.253-3.571 1.852-6.098 1.852-4.616-.027-7.968-2.205-9.203-5.826z" fill="#BE12A5"/></svg>