<svg width="209" height="56" fill="none" xmlns="http://www.w3.org/2000/svg"><g clip-path="url(#clip0_48_214)" fill="#fff"><path d="M6.489 39.803l-6.38-23.63h4.185l4.901 18.149 5.253-18.15 3.901.002 5.271 18.244 4.924-18.24 4.184-.006-6.382 23.626-4.85-.005L16.4 22.149l-5.1 17.65-4.811.005zm29.124-23.617h3.984v23.601h-3.984V16.186zm12.501 19.899h9.697v3.702H44.213V16.186h3.9v19.899zm21.949-19.872c3.27 0 5.989 1.143 8.132 3.402 2.17 2.26 3.269 5.064 3.269 8.385 0 3.294-1.1 6.098-3.27 8.384-2.142 2.26-4.862 3.403-8.131 3.403h-9.368V16.186h9.368v.027zm0 19.9c2.253 0 4.093-.763 5.467-2.288 1.428-1.524 2.143-3.484 2.143-5.798 0-2.368-.715-4.274-2.143-5.798-1.401-1.525-3.242-2.287-5.467-2.287h-5.44v16.17h5.44zm32.416-3.068c0 1.934-.686 3.54-2.088 4.82-1.4 1.28-3.05 1.934-5.082 1.934H85.117V16.186h9.45c1.951 0 3.599.653 4.945 1.879 1.374 1.253 2.033 2.805 2.033 4.657 0 2.07-.824 3.65-2.417 4.821 2.087 1.09 3.351 3.05 3.351 5.502zm-13.434-13.21v6.21h5.55c1.73 0 3.049-1.362 3.049-3.105 0-1.743-1.319-3.105-3.05-3.105h-5.549zm6.291 16.315c1.813 0 3.242-1.444 3.242-3.296 0-1.852-1.429-3.295-3.242-3.295h-6.29v6.618h6.29v-.027zm14.752-.055h10.549V39.8h-14.449V16.186h14.285v3.704h-10.385v6.128h9.533v3.677h-9.533v6.4zm27.637 3.705l-5.055-8.607h-4.615v8.606h-3.901V16.186h9.532c2.144 0 3.957.735 5.413 2.233 1.483 1.444 2.253 3.241 2.253 5.366 0 2.995-1.896 5.746-4.726 6.836l5.412 9.178h-4.313zm-9.67-19.965v7.899h5.604c2.088 0 3.736-1.743 3.736-3.95 0-2.178-1.675-3.949-3.736-3.949h-5.604zM158.576 39.8l-5.027-8.612h-4.615V39.8h-3.901V16.173h9.532c2.143 0 3.957.736 5.413 2.235 1.483 1.444 2.252 3.243 2.252 5.368 0 2.998-1.895 5.75-4.725 6.84l5.412 9.184h-4.341zm-9.642-19.975v7.902h5.604c2.088 0 3.736-1.744 3.736-3.95 0-2.18-1.675-3.952-3.736-3.952h-5.604zm16.839-3.649h3.902v23.623h-3.902V16.176zm12.417 19.919h10.55V39.8h-14.451V16.186h14.285v3.704H178.19v6.128h9.533v3.677h-9.533v6.4zm13.269-1.671l3.379-1.96c.961 2.668 2.912 3.975 5.906 3.975 2.967 0 4.423-1.252 4.423-3.103 0-.98-.412-1.688-1.181-2.178-.77-.517-2.198-1.09-4.231-1.688-2.28-.68-3.406-1.116-5-2.15-1.538-1.09-2.308-2.641-2.308-4.764 0-2.097.742-3.73 2.253-4.955 1.484-1.252 3.297-1.851 5.412-1.851 3.819 0 6.758 1.96 8.297 5.2l-3.297 1.878c-.989-2.178-2.665-3.294-5-3.294-2.28 0-3.736 1.143-3.736 2.94 0 1.742 1.154 2.559 4.808 3.675.906.3 1.565.517 1.977.68.44.137 1.017.382 1.758.681.77.3 1.375.653 1.732.953 1.263.98 2.609 2.586 2.444 4.845 0 2.124-.769 3.839-2.335 5.09-1.538 1.253-3.571 1.852-6.098 1.852-4.615-.027-7.967-2.205-9.203-5.826z"/></g><defs><clipPath id="clip0_48_214"><path fill="#fff" d="M0 0h209v56H0z"/></clipPath></defs></svg>