<svg width="222" height="41" fill="none" xmlns="http://www.w3.org/2000/svg"><path d="M104.341 34.635h4.386l6.129-22.774v22.774h4.934v-30.1h-6.778l-6.129 22.077-6.13-22.077h-6.927v30.1h4.236V11.861l6.279 22.774zm36.08-14.9c0-5.333-2.641-7.326-8.123-7.326-3.438 0-6.129 1.046-7.724 1.993v4.236c1.346-1.046 4.385-2.143 7.076-2.143 2.542 0 3.589.947 3.589 3.19v1.196h-.798c-7.874 0-11.462 2.641-11.462 7.076 0 4.436 2.642 6.927 6.678 6.927 3.04 0 4.386-.947 5.332-1.993h.25c0 .548.249 1.346.398 1.744h5.083a63.845 63.845 0 01-.249-5.332c-.05 0-.05-9.568-.05-9.568zm-5.182 9.717c-.648.947-1.844 1.744-3.738 1.744-2.143 0-3.189-1.345-3.189-3.189 0-2.541 1.744-3.438 6.279-3.438h.797v4.933h-.149v-.05zm14.103-16.644h-4.784v28.106h5.182v-8.77c1.346 1.993 3.19 2.94 5.482 2.94 5.083 0 8.522-3.987 8.522-11.313 0-7.325-3.339-11.312-8.273-11.312-2.392 0-4.385 1.046-5.88 3.19.05-.05-.249-2.841-.249-2.841zm4.435 18.239c-2.641 0-4.136-2.242-4.136-7.176 0-5.083 1.445-7.326 4.385-7.326 2.791 0 4.236 2.243 4.236 7.176 0 5.084-1.445 7.326-4.485 7.326zm26.063 3.588h5.881l-8.273-11.711 7.326-10.116h-5.183l-7.326 10.116V12.808h-5.182v21.827h5.182V23.971l7.575 10.664zm23.173-1.445v-4.236c-1.594 1.046-4.236 1.993-6.777 1.993-3.738 0-5.183-1.744-5.482-5.481h12.359v-2.791c0-7.575-3.339-10.366-8.522-10.366-6.279 0-9.319 4.784-9.319 11.462 0 7.575 3.738 11.313 10.266 11.313 3.638-.05 6.03-.848 7.475-1.894zm-8.372-16.645c2.542 0 3.339 2.143 3.339 4.784v.399h-7.226c.15-3.439 1.495-5.183 3.887-5.183zm27.01.399v-4.136h-17.292v4.136h6.129v17.691h5.183V16.944h5.98z" fill="#fff"/><path fill-rule="evenodd" clip-rule="evenodd" d="M40.354 19.984c0 11.036-8.947 19.983-19.984 19.983C9.334 39.967.387 31.02.387 19.984.387 8.947 9.334 0 20.37 0c11.037 0 19.984 8.947 19.984 19.984zm-19.086-8.771h1.994v-.05h.15v20.78h3.986V7.974h-6.13c-6.13 0-9.319 3.19-9.319 7.874 0 3.738 1.744 5.88 4.934 8.123L11.4 32.093h4.684l5.731-8.92-1.993-1.445c-2.541-1.745-3.738-3.19-3.738-6.13 0-2.641 1.745-4.385 5.183-4.385zm60.036 17.003A19.95 19.95 0 0163.08 39.967a20.057 20.057 0 01-16.59-8.772l6.922-9.168-1.345 9.468 7.325 2.542 8.92-14.253c-.398 2.642-1.046 8.771 4.785 10.665 2.882.877 5.65-.151 8.207-2.233zM82.7 16.155c-2.87 4.331-5.637 7.394-7.112 7.018-2.497-.637-.326-8.494 1.121-13.731l.075-.272v-.15l-8.123-2.79-9.717 15.847 1.345-8.672-7.026-2.441-9.826 12.86a19.711 19.711 0 01-.34-3.84A19.95 19.95 0 0163.08 0 19.95 19.95 0 0182.7 16.155z" fill="#fff"/></svg>