<svg width="222" height="41" fill="none" xmlns="http://www.w3.org/2000/svg"><path d="M103.955 34.635h4.385l6.13-22.774v22.774h4.933v-30.1h-6.777l-6.13 22.077-6.13-22.077h-6.927v30.1h4.236V11.861l6.28 22.774zm36.08-14.9c0-5.333-2.642-7.326-8.123-7.326-3.439 0-6.13 1.046-7.725 1.993v4.236c1.346-1.046 4.386-2.143 7.077-2.143 2.541 0 3.588.947 3.588 3.19v1.196h-.798c-7.873 0-11.461 2.641-11.461 7.076 0 4.436 2.641 6.927 6.677 6.927 3.04 0 4.386-.947 5.333-1.993h.249c0 .548.249 1.346.398 1.744h5.084a63.422 63.422 0 01-.25-5.332c-.049 0-.049-9.568-.049-9.568zm-5.183 9.717c-.648.947-1.844 1.744-3.738 1.744-2.143 0-3.189-1.345-3.189-3.189 0-2.541 1.744-3.438 6.279-3.438h.797v4.933h-.149v-.05zm14.103-16.644h-4.784v28.106h5.183v-8.77c1.345 1.993 3.189 2.94 5.481 2.94 5.084 0 8.522-3.987 8.522-11.313 0-7.325-3.339-11.312-8.272-11.312-2.392 0-4.386 1.046-5.881 3.19.05-.05-.249-2.841-.249-2.841zm4.435 18.239c-2.641 0-4.136-2.242-4.136-7.176 0-5.083 1.445-7.326 4.385-7.326 2.791 0 4.236 2.243 4.236 7.176 0 5.084-1.445 7.326-4.485 7.326zm26.064 3.588h5.88l-8.272-11.711 7.325-10.116h-5.183l-7.325 10.116V12.808h-5.183v21.827h5.183V23.971l7.575 10.664zm23.173-1.445v-4.236c-1.595 1.046-4.236 1.993-6.778 1.993-3.737 0-5.183-1.744-5.482-5.481h12.359v-2.791c0-7.575-3.339-10.366-8.521-10.366-6.28 0-9.319 4.784-9.319 11.462 0 7.575 3.737 11.313 10.265 11.313 3.638-.05 6.03-.848 7.476-1.894zm-8.373-16.645c2.542 0 3.339 2.143 3.339 4.784v.399h-7.226c.15-3.439 1.495-5.183 3.887-5.183zm27.011.399v-4.136h-17.293v4.136h6.13v17.691h5.183V16.944h5.98z" fill="#000"/><path fill-rule="evenodd" clip-rule="evenodd" d="M39.967 19.984c0 11.036-8.947 19.983-19.983 19.983C8.947 39.967 0 31.02 0 19.984 0 8.947 8.947 0 19.984 0 31.02 0 39.967 8.947 39.967 19.984zm-19.085-8.771h1.993v-.05h.15v20.78h3.986V7.974h-6.13c-6.13 0-9.319 3.19-9.319 7.874 0 3.738 1.745 5.88 4.934 8.123l-5.482 8.123H15.7l5.73-8.92-1.993-1.445c-2.541-1.745-3.737-3.19-3.737-6.13 0-2.641 1.744-4.385 5.182-4.385z" fill="#FC3F1D"/><path d="M62.693 39.967a19.95 19.95 0 0019.984-19.983A19.95 19.95 0 0062.693 0 19.95 19.95 0 0042.71 19.984c-.1 11.063 8.97 19.983 19.983 19.983z" fill="#FED42B"/><path fill-rule="evenodd" clip-rule="evenodd" d="M46.104 31.196l6.923-9.169-1.346 9.468 7.326 2.542 8.92-14.253c-.399 2.642-1.046 8.771 4.784 10.665 2.882.877 5.65-.15 8.206-2.232a19.976 19.976 0 001.76-8.233c0-1.31-.125-2.59-.364-3.828-2.87 4.33-5.636 7.393-7.11 7.017-2.498-.636-.327-8.493 1.12-13.73l.076-.273v-.15l-8.123-2.79-9.718 15.847 1.346-8.671-7.027-2.442-9.826 12.86a19.559 19.559 0 003.053 7.372z" fill="#000"/></svg>